<svg width="6" height="12" viewBox="0 0 6 12" fill="none" xmlns="http://www.w3.org/2000/svg">
<path d="M1.09903 2.72854C1.09903 3.00311 1.09903 4.22865 1.09903 4.22865H0V6.06299H1.09903V11.514H3.35667V6.06314H4.87165C4.87165 6.06314 5.01353 5.18359 5.08231 4.22189C4.88513 4.22189 3.36521 4.22189 3.36521 4.22189C3.36521 4.22189 3.36521 3.15472 3.36521 2.96767C3.36521 2.78022 3.61136 2.52806 3.85465 2.52806C4.09748 2.52806 4.60999 2.52806 5.08469 2.52806C5.08469 2.27831 5.08469 1.41538 5.08469 0.618408C4.45099 0.618408 3.73004 0.618408 3.41225 0.618408C1.04322 0.618282 1.09903 2.45445 1.09903 2.72854Z" fill="white"/>
</svg>
