<svg width="59" height="59" viewBox="0 0 59 59" fill="none" xmlns="http://www.w3.org/2000/svg">
<g id="crown">
<path id="Vector" d="M49.7814 40.2838H9.21869C8.82465 40.2838 8.47439 40.0332 8.34674 39.6608L2.28311 21.9753C2.11853 21.4931 2.37489 20.9693 2.8565 20.8037C3.0042 20.7536 3.15823 20.7409 3.30119 20.7662C3.63457 20.7857 3.94526 20.9872 4.08927 21.3143C4.83885 23.0165 7.50537 28.512 10.616 28.512C10.6546 28.512 10.6936 28.511 10.7331 28.5089C12.6095 28.4255 15.544 26.2601 18.8688 16.4233C18.9959 16.0488 19.3467 15.7966 19.7418 15.7966C20.1374 15.7966 20.4882 16.0488 20.6154 16.4233C21.7505 19.7777 25.5554 28.4577 29.5064 28.4577C29.5169 28.4577 29.527 28.4572 29.538 28.4572C31.4112 28.4345 34.2914 26.3324 37.3757 16.4439C37.4964 16.0583 37.8525 15.7966 38.2561 15.7966H38.265C38.6722 15.8009 39.0283 16.0709 39.1412 16.4618C40.0838 19.7081 43.4271 28.2108 47.5279 28.5659C49.9239 28.7631 52.5803 26.0518 55.2031 20.6961C55.4162 20.2588 55.9342 20.062 56.3842 20.2493C56.8331 20.4355 57.0609 20.9387 56.9037 21.3997L50.6539 39.6608C50.5257 40.0337 50.1755 40.2838 49.7814 40.2838ZM9.87702 38.4401H49.122L52.7338 27.887C50.9883 29.7343 49.2159 30.5582 47.3676 30.4031C42.8258 30.008 39.7093 23.4633 38.2603 19.6163C35.7008 26.7607 32.8434 30.2618 29.5591 30.3003C29.5412 30.3003 29.5243 30.3013 29.5064 30.3013C24.9166 30.3013 21.3734 23.265 19.7682 19.3836C17.0294 26.6109 14.0902 30.2043 10.8149 30.3509C9.13588 30.4158 7.67364 29.5792 6.4145 28.338L9.87702 38.4401Z" fill="#A07B50" stroke="#1F1C1D" stroke-width="0.8"/>
</g>
</svg>
